<?xml version="1.0" encoding="utf-8"?>
<!-- Generator: Avocode 2.6.0 - http://avocode.com -->
<svg height="12" width="16" xmlns:xlink="http://www.w3.org/1999/xlink" xmlns="http://www.w3.org/2000/svg" viewBox="0 0 16 12">
    <path fill="#8b612a" fill-rule="evenodd" d="M 14.18 3.27 C 14.18 2.82 14.02 2.43 13.7 2.11 C 13.39 1.8 13 1.64 12.55 1.64 L 12 1.64 L 12 4.91 L 12.55 4.91 C 13 4.91 13.39 4.75 13.7 4.43 C 14.02 4.11 14.18 3.73 14.18 3.27 L 14.18 3.27 Z M 0 9.82 L 15.27 9.82 C 15.27 10.42 15.06 10.93 14.63 11.36 C 14.21 11.79 13.69 12 13.09 12 L 2.18 12 C 1.58 12 1.07 11.79 0.64 11.36 C 0.21 10.93 0 10.42 0 9.82 L 0 9.82 Z M 15.82 3.27 C 15.82 4.18 15.5 4.95 14.86 5.59 C 14.22 6.23 13.45 6.55 12.55 6.55 L 12 6.55 L 12 6.82 C 12 7.34 11.81 7.79 11.44 8.16 C 11.06 8.54 10.61 8.73 10.09 8.73 L 4.09 8.73 C 3.57 8.73 3.12 8.54 2.74 8.16 C 2.37 7.79 2.18 7.34 2.18 6.82 L 2.18 0.55 C 2.18 0.4 2.24 0.27 2.34 0.16 C 2.45 0.05 2.58 0 2.73 0 L 12.55 0 C 13.45 0 14.22 0.32 14.86 0.96 C 15.5 1.6 15.82 2.37 15.82 3.27 L 15.82 3.27 Z M 15.82 3.27" />
</svg>