<?xml version="1.0" encoding="utf-8"?>
<!-- Generator: Avocode 2.6.0 - http://avocode.com -->
<svg height="12" width="15" xmlns:xlink="http://www.w3.org/1999/xlink" xmlns="http://www.w3.org/2000/svg" viewBox="0 0 15 12">
    <path fill="#f8d31c" fill-rule="evenodd" d="M 1.53 4.62 L 6.02 9.41 L 3.86 4.62 L 1.53 4.62 L 1.53 4.62 Z M 7.39 10.18 L 9.9 4.62 L 4.87 4.62 L 7.39 10.18 Z M 3.88 3.69 L 5.35 0.92 L 3.46 0.92 L 1.39 3.69 L 3.88 3.69 L 3.88 3.69 Z M 8.75 9.41 L 13.24 4.62 L 10.91 4.62 L 8.75 9.41 Z M 4.93 3.69 L 9.84 3.69 L 8.37 0.92 L 6.4 0.92 L 4.93 3.69 Z M 10.89 3.69 L 13.39 3.69 L 11.31 0.92 L 9.42 0.92 L 10.89 3.69 Z M 11.91 0.19 L 14.68 3.88 C 14.74 3.97 14.77 4.07 14.77 4.18 C 14.76 4.29 14.72 4.39 14.65 4.47 L 7.72 11.86 C 7.64 11.95 7.52 12 7.39 12 C 7.25 12 7.13 11.95 7.05 11.86 L 0.12 4.47 C 0.05 4.39 0.01 4.29 0 4.18 C 0 4.07 0.03 3.97 0.09 3.88 L 2.86 0.19 C 2.95 0.06 3.07 0 3.23 0 L 11.54 0 C 11.7 0 11.82 0.06 11.91 0.19 L 11.91 0.19 Z M 11.91 0.19" />
</svg>