<?xml version="1.0" encoding="utf-8"?>
<!-- Generator: Avocode 2.6.0 - http://avocode.com -->
<svg height="24" width="24" xmlns:xlink="http://www.w3.org/1999/xlink" xmlns="http://www.w3.org/2000/svg" viewBox="0 0 24 24">
    <path fill="#ffffff" fill-rule="evenodd" d="M 0 12 C 0 5.37 5.37 0 12 0 L 12 0 C 18.63 0 24 5.37 24 12 L 24 12 C 24 18.63 18.63 24 12 24 L 12 24 C 5.37 24 0 18.63 0 12 L 0 12 Z M 0 12" />
    <path fill="#211d31" fill-rule="evenodd" d="M 6 8 L 6 8.67 C 6.72 9.3 10.87 12.91 11.2 13.2 C 11.53 13.49 11.87 13.52 12 13.52 C 12.13 13.52 12.47 13.49 12.8 13.2 C 13.14 12.9 17.53 9.08 18 8.67 L 18 8 L 6 8 L 6 8 Z M 6 9.31 L 6 15.33 L 9.63 12.46 C 8.45 11.44 6.78 9.98 6 9.31 L 6 9.31 Z M 18 9.31 C 17.27 9.94 15.56 11.42 14.37 12.46 L 18 15.32 L 18 9.31 L 18 9.31 Z M 10 12.78 L 6 15.93 L 6 16.64 L 18 16.64 L 18 15.93 L 14 12.78 C 13.54 13.19 13.2 13.48 13.12 13.56 C 12.66 13.96 12.18 14 12 14 C 11.82 14 11.34 13.96 10.88 13.56 C 10.8 13.48 10.46 13.19 10 12.78 L 10 12.78 Z M 10 12.78" />
</svg>