<?xml version="1.0" encoding="utf-8"?>
<!-- Generator: Avocode 2.6.0 - http://avocode.com -->
<svg height="24" width="24" xmlns:xlink="http://www.w3.org/1999/xlink" xmlns="http://www.w3.org/2000/svg" viewBox="0 0 24 24">
    <path fill="#ffffff" fill-rule="evenodd" d="M 0 12 C 0 5.37 5.37 0 12 0 L 12 0 C 18.63 0 24 5.37 24 12 L 24 12 C 24 18.63 18.63 24 12 24 L 12 24 C 5.37 24 0 18.63 0 12 L 0 12 Z M 0 12" />
    <path fill="#211d31" fill-rule="evenodd" d="M 10.55 17.84 C 10.55 17.65 10.54 17.15 10.54 16.49 C 8.32 16.97 7.86 15.42 7.86 15.42 C 7.5 14.5 6.97 14.26 6.97 14.26 C 6.25 13.76 7.03 13.77 7.03 13.77 C 7.83 13.83 8.25 14.59 8.25 14.59 C 8.96 15.81 10.11 15.46 10.56 15.26 C 10.63 14.74 10.84 14.39 11.07 14.19 C 9.3 13.99 7.44 13.31 7.44 10.26 C 7.44 9.39 7.75 8.68 8.26 8.12 C 8.18 7.92 7.91 7.11 8.34 6.02 C 8.34 6.02 9.01 5.8 10.53 6.83 C 11.16 6.66 11.84 6.57 12.52 6.57 C 13.2 6.57 13.88 6.66 14.51 6.83 C 16.03 5.8 16.7 6.02 16.7 6.02 C 17.13 7.11 16.86 7.92 16.78 8.12 C 17.29 8.68 17.59 9.39 17.59 10.26 C 17.59 13.32 15.73 13.99 13.96 14.19 C 14.25 14.43 14.5 14.92 14.5 15.66 C 14.5 16.72 14.49 17.58 14.49 17.84 C 14.49 18.05 10.55 18.05 10.55 17.84 Z M 10.55 17.84" />
</svg>