<?xml version="1.0" encoding="utf-8"?>
<!-- Generator: Avocode 2.6.0 - http://avocode.com -->
<svg height="12" width="14" xmlns:xlink="http://www.w3.org/1999/xlink" xmlns="http://www.w3.org/2000/svg" viewBox="0 0 14 12">
    <path fill="#ff5441" fill-rule="evenodd" d="M 6.95 11.09 L 2.39 6.69 C 2.34 6.65 2.28 6.59 2.19 6.5 C 2.11 6.41 1.97 6.25 1.79 6.02 C 1.6 5.79 1.44 5.55 1.29 5.31 C 1.14 5.07 1.01 4.77 0.9 4.43 C 0.78 4.08 0.73 3.75 0.73 3.42 C 0.73 2.35 1.04 1.51 1.66 0.91 C 2.27 0.3 3.13 0 4.22 0 C 4.52 0 4.83 0.05 5.14 0.16 C 5.46 0.26 5.75 0.4 6.02 0.58 C 6.29 0.76 6.52 0.93 6.72 1.08 C 6.91 1.24 7.1 1.4 7.27 1.58 C 7.45 1.4 7.63 1.24 7.83 1.08 C 8.02 0.93 8.26 0.76 8.53 0.58 C 8.8 0.4 9.09 0.26 9.4 0.16 C 9.72 0.05 10.02 0 10.33 0 C 11.42 0 12.27 0.3 12.89 0.91 C 13.51 1.51 13.82 2.35 13.82 3.42 C 13.82 4.5 13.26 5.59 12.15 6.71 L 7.59 11.09 C 7.51 11.18 7.4 11.22 7.27 11.22 C 7.15 11.22 7.04 11.18 6.95 11.09 Z M 6.95 11.09" />
</svg>