<?xml version="1.0" encoding="utf-8"?>
<!-- Generator: Avocode 2.6.0 - http://avocode.com -->
<svg height="24" width="24" xmlns:xlink="http://www.w3.org/1999/xlink" xmlns="http://www.w3.org/2000/svg" viewBox="0 0 24 24">
    <path fill="#ffffff" fill-rule="evenodd" d="M 0 12 C 0 5.37 5.37 0 12 0 L 12 0 C 18.63 0 24 5.37 24 12 L 24 12 C 24 18.63 18.63 24 12 24 L 12 24 C 5.37 24 0 18.63 0 12 L 0 12 Z M 0 12" />
    <path fill="#211d31" fill-rule="evenodd" d="M 8.83 17.63 L 6.18 17.63 L 6.17 9.71 L 8.81 9.71 L 8.83 17.63 L 8.83 17.63 Z M 7.44 8.67 L 7.42 8.67 C 6.56 8.67 6 8.08 6 7.34 C 6 6.58 6.58 6 7.46 6 C 8.34 6 8.88 6.58 8.89 7.34 C 8.89 8.08 8.34 8.67 7.44 8.67 L 7.44 8.67 Z M 18 17.63 L 15.33 17.63 L 15.33 13.33 C 15.33 12.29 15.06 11.58 14.12 11.58 C 13.41 11.58 13.03 12.06 12.84 12.52 C 12.78 12.69 12.76 12.92 12.76 13.15 L 12.76 17.63 L 10.08 17.63 L 10.06 9.71 L 12.74 9.71 L 12.76 10.83 C 13.1 10.3 13.67 9.55 15.04 9.55 C 16.73 9.55 18 10.65 18 13.03 L 18 17.63 L 18 17.63 Z M 18 17.63" />
</svg>