<?xml version="1.0" encoding="utf-8"?>
<!-- Generator: Avocode 2.6.0 - http://avocode.com -->
<svg height="12" width="12" xmlns:xlink="http://www.w3.org/1999/xlink" xmlns="http://www.w3.org/2000/svg" viewBox="0 0 12 12">
    <path fill="#4a90e2" fill-rule="evenodd" d="M 11.78 0.22 C 12.03 0.51 12.07 0.94 11.88 1.49 C 11.7 2.03 11.39 2.52 10.96 2.96 L 9.58 4.34 L 10.95 10.3 C 10.98 10.4 10.95 10.5 10.85 10.58 L 9.75 11.4 C 9.71 11.43 9.66 11.45 9.59 11.45 C 9.57 11.45 9.55 11.45 9.53 11.44 C 9.44 11.43 9.38 11.38 9.35 11.31 L 6.96 6.96 L 4.74 9.17 L 5.2 10.83 C 5.23 10.93 5.2 11.02 5.13 11.1 L 4.31 11.92 C 4.26 11.97 4.19 12 4.11 12 L 4.09 12 C 4.01 11.99 3.94 11.95 3.89 11.89 L 2.27 9.73 L 0.11 8.11 C 0.05 8.07 0.01 8.01 0 7.92 C 0 7.84 0.02 7.77 0.08 7.7 L 0.9 6.87 C 0.95 6.82 1.02 6.79 1.1 6.79 C 1.13 6.79 1.15 6.8 1.17 6.8 L 2.83 7.26 L 5.04 5.04 L 0.69 2.65 C 0.61 2.6 0.57 2.54 0.55 2.44 C 0.54 2.35 0.56 2.28 0.63 2.21 L 1.72 1.12 C 1.8 1.04 1.89 1.02 1.98 1.05 L 7.67 2.41 L 9.04 1.04 C 9.48 0.61 9.97 0.3 10.51 0.12 C 11.06 -0.07 11.49 -0.03 11.78 0.22 L 11.78 0.22 Z M 11.78 0.22" />
</svg>