<?xml version="1.0" encoding="utf-8"?>
<!-- Generator: Avocode 2.6.0 - http://avocode.com -->
<svg height="24" width="24" xmlns:xlink="http://www.w3.org/1999/xlink" xmlns="http://www.w3.org/2000/svg" viewBox="0 0 24 24">
    <path fill="#ffffff" fill-rule="evenodd" d="M 0 12 C 0 5.37 5.37 0 12 0 L 12 0 C 18.63 0 24 5.37 24 12 L 24 12 C 24 18.63 18.63 24 12 24 L 12 24 C 5.37 24 0 18.63 0 12 L 0 12 Z M 0 12" />
    <path fill="#211d31" fill-rule="evenodd" d="M 16.91 8.35 C 17.47 8.02 17.9 7.49 18.1 6.86 C 17.58 7.17 17 7.4 16.39 7.52 C 15.9 6.99 15.2 6.67 14.42 6.67 C 12.93 6.67 11.73 7.87 11.73 9.36 C 11.73 9.57 11.75 9.78 11.8 9.97 C 9.56 9.86 7.58 8.79 6.25 7.16 C 6.02 7.56 5.88 8.02 5.88 8.51 C 5.88 9.45 6.36 10.27 7.08 10.76 C 6.64 10.74 6.22 10.62 5.86 10.42 L 5.86 10.45 C 5.86 11.76 6.79 12.84 8.02 13.09 C 7.8 13.16 7.56 13.19 7.31 13.19 C 7.14 13.19 6.97 13.17 6.8 13.14 C 7.15 14.21 8.14 14.99 9.32 15.01 C 8.4 15.73 7.24 16.16 5.98 16.16 C 5.76 16.16 5.54 16.15 5.33 16.12 C 6.52 16.89 7.94 17.33 9.46 17.33 C 14.41 17.33 17.12 13.23 17.12 9.67 C 17.12 9.56 17.12 9.44 17.12 9.32 C 17.64 8.94 18.1 8.47 18.46 7.93 C 17.98 8.14 17.46 8.29 16.91 8.35 Z M 16.91 8.35" />
</svg>