<?xml version="1.0" encoding="utf-8"?>
<!-- Generator: Avocode 2.6.0 - http://avocode.com -->
<svg height="14" width="14" xmlns:xlink="http://www.w3.org/1999/xlink" xmlns="http://www.w3.org/2000/svg" viewBox="0 0 14 14">
    <path fill="#4a54ff" fill-rule="evenodd" d="M 7.54 6.43 L 7.54 11.31 C 7.54 11.89 7.33 12.4 6.9 12.82 C 6.47 13.25 5.97 13.46 5.38 13.46 C 4.8 13.46 4.3 13.25 3.87 12.82 C 3.44 12.4 3.23 11.89 3.23 11.31 C 3.23 11.16 3.28 11.04 3.39 10.93 C 3.5 10.82 3.62 10.77 3.77 10.77 C 3.92 10.77 4.04 10.82 4.15 10.93 C 4.25 11.04 4.31 11.16 4.31 11.31 C 4.31 11.59 4.42 11.84 4.64 12.06 C 4.85 12.28 5.1 12.38 5.38 12.38 C 5.67 12.38 5.91 12.28 6.13 12.06 C 6.35 11.84 6.46 11.59 6.46 11.31 L 6.46 6.43 C 6.65 6.37 6.83 6.34 7 6.34 C 7.17 6.34 7.35 6.37 7.54 6.43 L 7.54 6.43 Z M 14 6.66 C 14 6.73 13.97 6.79 13.92 6.84 C 13.87 6.9 13.8 6.92 13.73 6.92 C 13.67 6.92 13.6 6.9 13.54 6.84 C 13.26 6.58 13 6.39 12.75 6.26 C 12.51 6.13 12.22 6.07 11.9 6.07 C 11.52 6.07 11.16 6.17 10.82 6.38 C 10.48 6.58 10.19 6.86 9.95 7.19 C 9.91 7.25 9.86 7.33 9.81 7.43 C 9.75 7.53 9.71 7.6 9.68 7.63 C 9.62 7.73 9.54 7.77 9.45 7.77 C 9.35 7.77 9.27 7.73 9.2 7.63 C 9.18 7.6 9.14 7.53 9.08 7.43 C 9.02 7.33 8.97 7.25 8.94 7.19 C 8.69 6.86 8.41 6.58 8.07 6.38 C 7.74 6.17 7.38 6.07 7 6.07 C 6.62 6.07 6.26 6.17 5.93 6.38 C 5.59 6.58 5.31 6.86 5.06 7.19 C 5.03 7.25 4.98 7.33 4.92 7.43 C 4.86 7.53 4.82 7.6 4.8 7.63 C 4.73 7.73 4.65 7.77 4.55 7.77 C 4.46 7.77 4.38 7.73 4.32 7.63 C 4.29 7.6 4.25 7.53 4.19 7.43 C 4.14 7.33 4.09 7.25 4.05 7.19 C 3.81 6.86 3.52 6.58 3.18 6.38 C 2.84 6.17 2.48 6.07 2.1 6.07 C 1.78 6.07 1.49 6.13 1.25 6.26 C 1 6.39 0.74 6.58 0.46 6.84 C 0.4 6.9 0.33 6.92 0.27 6.92 C 0.2 6.92 0.13 6.9 0.08 6.84 C 0.03 6.79 0 6.73 0 6.66 C 0 6.63 0 6.61 0.01 6.6 C 0.26 5.57 0.74 4.67 1.46 3.91 C 2.17 3.14 3.01 2.57 3.97 2.19 C 4.92 1.81 5.93 1.62 7 1.62 C 7.79 1.62 8.56 1.73 9.31 1.95 C 10.06 2.18 10.76 2.49 11.38 2.91 C 12.01 3.32 12.56 3.84 13.02 4.48 C 13.48 5.12 13.81 5.82 13.99 6.6 C 14 6.61 14 6.63 14 6.66 L 14 6.66 Z M 7.54 0.54 L 7.54 1.36 C 7.3 1.35 7.12 1.35 7 1.35 C 6.88 1.35 6.7 1.35 6.46 1.36 L 6.46 0.54 C 6.46 0.39 6.51 0.27 6.62 0.16 C 6.73 0.05 6.85 0 7 0 C 7.15 0 7.27 0.05 7.38 0.16 C 7.49 0.27 7.54 0.39 7.54 0.54 L 7.54 0.54 Z M 7.54 0.54" />
</svg>